<svg width="66" height="18" viewBox="0 0 66 18" fill="none" xmlns="http://www.w3.org/2000/svg">
<path d="M0.88375 18V1.2H4.24375V15.12H9.97975V18H0.88375ZM15.6739 6V18H12.3859V6H15.6739ZM12.2659 3.768V0.48H15.7939V3.768H12.2659ZM36.1486 7.488V18H32.8606V8.688H29.3566V18H26.0686V8.688H22.5646V18H19.2766V5.88H21.9886L22.5646 6.864L24.2686 5.88H26.5726L28.8046 7.176L31.0606 5.88H33.3646L36.1486 7.488ZM49.6975 15.192V18H42.5215L39.7375 16.392V7.488L42.5215 5.88H46.9135L49.6975 7.488V13.224H43.0255V15.192H49.6975ZM43.0255 8.688V10.752H46.4095V8.688H43.0255ZM52.5878 10.152H57.2198V5.52H60.4358V10.152H65.0678V13.368H60.4358V18H57.2198V13.368H52.5878V10.152Z" fill="#E3FF7D"/>
</svg>
