<svg width="921" height="412" viewBox="0 0 921 412" fill="none" xmlns="http://www.w3.org/2000/svg">
<g clip-path="url(#clip0_235_93)">
<path d="M436.527 410H632.117C639.839 410 639.851 398 632.117 398H436.527C428.805 398 428.792 410 436.527 410Z" fill="#27272A"/>
<path d="M383.72 149.231H188.786C186.727 149.234 184.753 150.053 183.297 151.509C181.841 152.965 181.022 154.939 181.019 156.998V195.724C190.743 195.952 197.054 203.976 198.584 213.717V248.823H199.322C199.439 248.824 199.552 248.87 199.635 248.953C199.718 249.036 199.765 249.149 199.765 249.266V267.947C199.765 268.064 199.718 268.177 199.635 268.26C199.552 268.343 199.439 268.39 199.322 268.39H198.584V381.3C198.584 383.78 198.559 388.306 198.559 388.306H383.72C385.779 388.304 387.753 387.485 389.209 386.029C390.665 384.572 391.484 382.598 391.487 380.539V156.998C391.484 154.939 390.665 152.965 389.209 151.509C387.753 150.053 385.779 149.234 383.72 149.231Z" fill="#3F3F46"/>
<path d="M745.899 21.8102V233.711H404.969V140.415C404.965 136.179 403.28 132.118 400.284 129.122C397.289 126.127 393.227 124.442 388.991 124.438H325.052V21.8102H745.899Z" fill="#3F3F46"/>
<path d="M766.949 263.583H405.35V262.107H765.473V12.5516C765.469 9.61537 764.301 6.80034 762.225 4.72411C760.149 2.64787 757.334 1.47998 754.398 1.47665H312.139C309.203 1.47998 306.388 2.64787 304.311 4.72411C302.235 6.80034 301.067 9.61537 301.064 12.5516V123.481H299.587V12.5516C299.591 9.22387 300.915 6.03349 303.268 3.68042C305.621 1.32735 308.811 0.00374519 312.139 0H754.398C757.725 0.0037399 760.916 1.32734 763.269 3.6804C765.622 6.03347 766.946 9.22386 766.949 12.5516V263.583Z" fill="#B6CC64"/>
<path d="M732.687 308.621H405.35V307.145H732.687C741.379 307.135 749.713 303.678 755.859 297.531C762.006 291.385 765.463 283.051 765.473 274.359V263.583H405.35V262.107H766.949V274.359C766.939 283.443 763.326 292.152 756.903 298.575C750.48 304.998 741.771 308.611 732.687 308.621Z" fill="#B6CC64"/>
<path d="M635.539 380.978C617.291 363.456 605.287 340.593 601.428 308.621H466.939C465.571 338.533 453.643 360.966 432.126 380.899L429.853 380.978C452.052 360.86 464.28 338.262 465.494 307.854L465.522 307.145H602.742L602.818 307.798C606.608 340.311 618.863 363.321 637.56 380.859L635.539 380.978Z" fill="#B6CC64"/>
<path d="M388.634 411.524H181.461V410.048H388.634C392.87 410.043 396.931 408.358 399.926 405.363C402.922 402.368 404.606 398.307 404.611 394.071V140.754C404.606 136.519 402.922 132.458 399.926 129.462C396.931 126.467 392.87 124.782 388.634 124.778H181.461C177.225 124.782 173.164 126.467 170.169 129.462C167.174 132.458 165.489 136.519 165.484 140.754V195.422H164.008V140.754C164.013 136.127 165.854 131.691 169.126 128.419C172.398 125.147 176.834 123.306 181.461 123.301H388.634C393.262 123.306 397.698 125.147 400.97 128.419C404.242 131.691 406.083 136.127 406.088 140.754V394.071C406.083 398.698 404.242 403.134 400.97 406.406C397.698 409.678 393.262 411.519 388.634 411.524Z" fill="#B6CC64"/>
<path d="M285.048 141.983C284.057 141.983 283.089 141.689 282.266 141.139C281.443 140.589 280.801 139.807 280.422 138.892C280.043 137.977 279.944 136.971 280.137 135.999C280.33 135.028 280.807 134.136 281.507 133.436C282.208 132.736 283.1 132.259 284.071 132.066C285.042 131.872 286.049 131.972 286.964 132.35C287.878 132.729 288.66 133.371 289.21 134.194C289.761 135.018 290.054 135.986 290.054 136.976C290.053 138.303 289.525 139.576 288.586 140.515C287.648 141.453 286.375 141.981 285.048 141.983ZM285.048 133.127C284.286 133.127 283.542 133.352 282.909 133.775C282.276 134.198 281.783 134.8 281.491 135.503C281.2 136.206 281.124 136.98 281.272 137.727C281.421 138.474 281.787 139.16 282.326 139.698C282.864 140.236 283.55 140.603 284.297 140.752C285.043 140.9 285.817 140.824 286.521 140.532C287.224 140.241 287.825 139.748 288.248 139.115C288.671 138.482 288.897 137.737 288.897 136.976C288.896 135.955 288.49 134.977 287.768 134.255C287.047 133.534 286.068 133.128 285.048 133.127Z" fill="#B6CC64"/>
<path d="M285.048 405.864C283.784 405.864 282.549 405.49 281.498 404.788C280.448 404.086 279.629 403.088 279.145 401.921C278.662 400.753 278.535 399.469 278.782 398.23C279.028 396.991 279.637 395.852 280.53 394.959C281.424 394.065 282.562 393.457 283.801 393.21C285.04 392.964 286.325 393.09 287.492 393.574C288.66 394.057 289.657 394.876 290.359 395.927C291.061 396.977 291.436 398.212 291.436 399.476C291.434 401.17 290.76 402.793 289.563 403.991C288.365 405.189 286.741 405.862 285.048 405.864ZM285.048 394.564C284.076 394.564 283.127 394.852 282.319 395.392C281.511 395.932 280.881 396.699 280.51 397.596C280.138 398.494 280.041 399.482 280.23 400.434C280.42 401.387 280.888 402.262 281.575 402.949C282.261 403.636 283.137 404.104 284.089 404.293C285.042 404.483 286.03 404.386 286.927 404.014C287.825 403.642 288.592 403.012 289.132 402.205C289.671 401.397 289.959 400.447 289.959 399.476C289.958 398.174 289.44 396.925 288.519 396.004C287.598 395.084 286.35 394.566 285.048 394.564Z" fill="#B6CC64"/>
<path d="M179.381 411.952H110.801C105.638 411.946 100.688 409.893 97.0374 406.242C93.3867 402.591 91.3332 397.642 91.3274 392.479V214.895C91.3332 209.732 93.3868 204.782 97.0374 201.132C100.688 197.481 105.638 195.428 110.801 195.422H179.381C184.544 195.428 189.493 197.481 193.144 201.132C196.795 204.782 198.848 209.732 198.854 214.895V246.674C199.204 246.82 199.502 247.067 199.713 247.382C199.923 247.697 200.035 248.068 200.036 248.447L200.036 269.125C200.035 269.504 199.923 269.874 199.713 270.189C199.502 270.505 199.204 270.751 198.854 270.897V392.479C198.848 397.642 196.794 402.592 193.144 406.242C189.493 409.893 184.543 411.946 179.381 411.952ZM110.801 196.898C106.029 196.904 101.455 198.802 98.0811 202.175C94.7073 205.549 92.8095 210.123 92.804 214.895V392.479C92.8094 397.25 94.7072 401.824 98.081 405.198C101.455 408.572 106.029 410.47 110.801 410.475H179.381C184.152 410.47 188.726 408.572 192.1 405.198C195.474 401.825 197.372 397.25 197.377 392.479V269.568H198.116C198.233 269.568 198.346 269.521 198.429 269.438C198.512 269.355 198.559 269.242 198.559 269.125L198.559 248.447C198.559 248.329 198.512 248.216 198.429 248.133C198.346 248.05 198.233 248.003 198.116 248.003H197.377V214.895C197.372 210.123 195.474 205.549 192.1 202.175C188.726 198.802 184.152 196.904 179.381 196.898H110.801Z" fill="#B6CC64"/>
<path d="M180.137 201.034H171.185C171.596 202.043 171.754 203.138 171.642 204.223C171.531 205.307 171.155 206.348 170.547 207.252C169.939 208.157 169.118 208.898 168.156 209.411C167.194 209.923 166.12 210.192 165.03 210.192H125.742C124.652 210.192 123.578 209.923 122.617 209.411C121.655 208.898 120.833 208.157 120.225 207.252C119.617 206.348 119.241 205.307 119.13 204.223C119.019 203.138 119.176 202.043 119.588 201.034H111.226C107.516 201.034 103.957 202.508 101.333 205.132C98.7094 207.756 97.2354 211.314 97.2354 215.025V392.349C97.2354 396.059 98.7094 399.618 101.333 402.242C103.957 404.866 107.516 406.34 111.226 406.34H180.137C183.847 406.34 187.406 404.866 190.03 402.242C192.654 399.618 194.128 396.059 194.128 392.349V215.025C194.128 211.314 192.654 207.756 190.03 205.132C187.406 202.508 183.847 201.034 180.137 201.034Z" fill="#3F3F46"/>
<path d="M919.23 411.663H0.87915C0.763454 411.664 0.648826 411.641 0.541824 411.597C0.434822 411.553 0.337548 411.488 0.2556 411.407C0.173652 411.325 0.108636 411.228 0.06427 411.121C0.0199045 411.014 -0.00292969 410.9 -0.00292969 410.784C-0.00292969 410.668 0.0199045 410.554 0.06427 410.447C0.108636 410.34 0.173652 410.243 0.2556 410.161C0.337548 410.08 0.434822 410.015 0.541824 409.971C0.648826 409.927 0.763454 409.905 0.87915 409.905H919.23C919.345 409.905 919.46 409.927 919.567 409.971C919.674 410.015 919.771 410.08 919.853 410.161C919.935 410.243 920 410.34 920.045 410.447C920.089 410.554 920.112 410.668 920.112 410.784C920.112 410.9 920.089 411.014 920.045 411.121C920 411.228 919.935 411.325 919.853 411.407C919.771 411.488 919.674 411.553 919.567 411.597C919.46 411.641 919.345 411.664 919.23 411.663Z" fill="#B6CC64"/>
<path d="M635.995 411.249H431.478C429.441 411.251 427.423 410.851 425.541 410.072C423.658 409.294 421.947 408.152 420.506 406.712C419.065 405.272 417.922 403.563 417.142 401.681C416.362 399.799 415.961 397.781 415.961 395.744C415.961 393.707 416.362 391.69 417.142 389.808C417.922 387.926 419.065 386.216 420.506 384.776C421.947 383.336 423.658 382.194 425.541 381.416C427.423 380.638 429.441 380.238 431.478 380.239H635.995C640.105 380.243 644.046 381.878 646.951 384.785C649.856 387.692 651.488 391.634 651.488 395.744C651.488 399.854 649.856 403.796 646.951 406.703C644.046 409.611 640.105 411.246 635.995 411.249ZM431.478 381.716C427.758 381.716 424.189 383.194 421.559 385.825C418.928 388.456 417.45 392.024 417.45 395.744C417.45 399.465 418.928 403.033 421.559 405.664C424.189 408.294 427.758 409.772 431.478 409.772H635.995C639.716 409.772 643.284 408.294 645.915 405.664C648.546 403.033 650.024 399.465 650.024 395.744C650.024 392.024 648.546 388.456 645.915 385.825C643.284 383.194 639.716 381.716 635.995 381.716H431.478Z" fill="#B6CC64"/>
<path d="M784.495 293.196L790.223 305.172L839.14 288.778L830.686 271.103L784.495 293.196Z" fill="#FFB8B8"/>
<path d="M790.149 333.586L772.148 295.949L786.689 288.994L798.268 313.201C799.971 316.763 800.19 320.856 798.876 324.579C797.562 328.302 794.823 331.351 791.261 333.054L790.149 333.586Z" fill="#2F2E41"/>
<path d="M772.964 400.141L786.231 399.693L786.789 348.049L771.237 348.967L772.964 400.141Z" fill="#FFB8B8"/>
<path d="M811.974 411.857H770.253V395.738H797.087C801.036 395.738 804.822 397.306 807.614 400.098C810.406 402.89 811.974 406.676 811.974 410.625V411.857Z" fill="#2F2E41"/>
<path d="M774.055 392.383C772.943 392.383 771.862 392.01 770.987 391.324C770.111 390.637 769.491 389.677 769.225 388.597C761.957 359.396 734.914 212.264 758.828 183.367L759.037 183.115L759.353 183.035C761.032 182.61 792.678 172.812 811.247 188.105L811.464 188.284L821.798 218.199L849.657 259.554C851.183 261.818 852.238 264.366 852.761 267.046C853.284 269.727 853.263 272.484 852.701 275.157C852.138 277.829 851.045 280.361 849.486 282.602C847.926 284.844 845.933 286.75 843.624 288.207L807.042 311.293C806.158 311.826 805.131 312.074 804.101 312.001C803.071 311.929 802.089 311.54 801.289 310.888C800.617 310.331 800.1 309.611 799.788 308.796L792.1 289.576C791.642 288.411 791.634 287.116 792.079 285.946C792.524 284.775 793.39 283.813 794.507 283.247L811.646 274.677C812.116 274.418 812.522 274.06 812.839 273.628C813.155 273.195 813.372 272.699 813.476 272.173C813.523 271.698 813.454 271.218 813.274 270.775C813.095 270.332 812.812 269.94 812.447 269.63L792.552 252.479C792.109 252.097 791.565 251.853 790.986 251.777C790.407 251.7 789.818 251.794 789.292 252.048C788.766 252.301 788.325 252.702 788.023 253.203C787.722 253.703 787.573 254.28 787.595 254.864L792.527 385.067C792.573 386.289 792.169 387.486 791.392 388.431C790.615 389.376 789.519 390.003 788.311 390.195L774.855 392.319C774.59 392.362 774.323 392.383 774.055 392.383Z" fill="#2F2E41"/>
<path d="M808.376 193.413C808.263 193.413 808.15 193.408 808.037 193.4L758.421 189.725C757.732 189.675 757.064 189.467 756.469 189.117C755.873 188.767 755.367 188.284 754.988 187.707C754.61 187.129 754.369 186.472 754.286 185.787C754.202 185.101 754.278 184.406 754.507 183.754C757.559 174.955 757.933 165.448 755.583 156.436C752.351 143.694 752.275 120.003 752.517 107.015C752.572 104.813 753.455 102.713 754.99 101.134C756.525 99.5541 758.599 98.6112 760.798 98.4932L760.798 98.4756L761.798 98.4878C769.881 98.6011 784.714 99.1777 796.851 101.703C800.942 102.55 804.622 104.764 807.287 107.981C809.951 111.198 811.441 115.226 811.511 119.403C811.785 131.461 811.826 147.782 810.458 157.06C809.303 164.887 811.436 179.918 812.809 188.182C812.915 188.825 812.88 189.484 812.707 190.113C812.533 190.742 812.225 191.325 811.803 191.823C811.381 192.32 810.856 192.72 810.265 192.995C809.673 193.269 809.029 193.412 808.376 193.413Z" fill="#B6CC64"/>
<path d="M826.089 240.71C824.767 240.077 823.6 239.162 822.67 238.029C821.74 236.897 821.07 235.574 820.707 234.154C820.344 232.734 820.296 231.252 820.568 229.812C820.839 228.371 821.423 227.008 822.278 225.818L799.363 127H816.687L836.912 223.871C838.816 225.44 840.078 227.653 840.459 230.091C840.84 232.529 840.314 235.022 838.98 237.098C837.646 239.173 835.597 240.688 833.221 241.353C830.845 242.019 828.307 241.79 826.089 240.71Z" fill="#FFB8B8"/>
<path d="M717.558 137.705L744.994 111.752L755.33 126.222L729.49 148.961L763.377 175.872C763.622 175.855 763.866 175.834 764.115 175.834C766.2 175.832 768.242 176.431 769.996 177.559C771.75 178.687 773.142 180.296 774.005 182.195C774.868 184.093 775.166 186.2 774.863 188.263C774.56 190.326 773.67 192.258 772.297 193.828C770.925 195.399 769.13 196.54 767.126 197.117C765.122 197.693 762.994 197.68 760.997 197.079C759.001 196.478 757.219 195.314 755.867 193.727C754.514 192.14 753.647 190.197 753.37 188.13L753.263 188.237L717.993 157.671C716.571 156.438 715.423 154.922 714.623 153.219C713.823 151.517 713.389 149.665 713.348 147.784C713.307 145.903 713.661 144.035 714.386 142.299C715.111 140.563 716.192 138.998 717.558 137.705Z" fill="#FFB8B8"/>
<path d="M801.188 133.332C800.34 133.335 799.508 133.096 798.791 132.644C798.073 132.192 797.499 131.545 797.136 130.778C794.95 126.163 793.445 121.255 792.668 116.208C791.478 107.964 797.21 103.06 803.04 101.991C808.711 100.952 815.618 103.445 817.383 111.374C817.531 112.045 817.646 112.723 817.725 113.406C818.432 119.417 819.098 124.092 819.703 127.302C819.821 127.933 819.804 128.582 819.65 129.206C819.497 129.829 819.212 130.413 818.814 130.917C818.416 131.421 817.915 131.834 817.344 132.128C816.773 132.422 816.146 132.591 815.504 132.622L801.418 133.326C801.341 133.33 801.264 133.332 801.188 133.332Z" fill="#B6CC64"/>
<path d="M781.544 89.9815C798.112 89.9815 811.544 76.55 811.544 59.9815C811.544 43.4129 798.112 29.9815 781.544 29.9815C764.975 29.9815 751.544 43.4129 751.544 59.9815C751.544 76.55 764.975 89.9815 781.544 89.9815Z" fill="#2F2E41"/>
<path d="M781.725 92.3299C795.29 92.3299 806.286 81.3336 806.286 67.7689C806.286 54.2042 795.29 43.2079 781.725 43.2079C768.16 43.2079 757.164 54.2042 757.164 67.7689C757.164 81.3336 768.16 92.3299 781.725 92.3299Z" fill="#FFB8B8"/>
<path d="M738.132 121.379C737.505 120.808 737.053 120.07 736.83 119.252C736.606 118.434 736.62 117.569 736.87 116.758C738.376 111.879 740.583 107.244 743.42 102.998C748.113 96.1161 755.653 96.3736 760.672 99.5247C765.555 102.59 768.963 109.094 764.907 116.133C764.563 116.728 764.189 117.305 763.786 117.862C760.246 122.771 757.578 126.667 755.856 129.442C755.517 129.988 755.065 130.455 754.531 130.811C753.996 131.167 753.392 131.404 752.758 131.507C752.124 131.61 751.475 131.576 750.856 131.407C750.236 131.238 749.66 130.938 749.166 130.528L738.305 121.53C738.246 121.481 738.188 121.431 738.132 121.379Z" fill="#B6CC64"/>
<path d="M775.717 33.1889C769.68 29.5869 768.373 20.6171 771.969 14.5771C775.566 8.53702 782.834 5.3863 789.861 5.17864C799.898 4.88201 809.591 9.87955 816.617 17.0536C823.643 24.2277 828.279 33.411 831.811 42.8104C835.344 52.2098 837.88 61.9584 841.361 71.377C843.148 76.2101 845.347 81.1727 849.434 84.3112C853.52 87.4497 860.017 88.0159 863.51 84.2282C863.497 90.2893 858.85 95.7991 853.087 97.6757C847.323 99.5523 840.804 98.1351 835.752 94.7869C826.987 88.9785 822.755 78.3756 820.336 68.1429C817.917 57.9101 816.726 47.1875 811.862 37.8651C809.847 34.0025 807.086 30.3334 803.201 28.3625C799.315 26.3916 794.139 26.521 791.014 29.5562C789.566 30.962 788.629 32.8789 786.986 34.0508C785.947 34.7009 784.772 35.1049 783.553 35.2319C782.334 35.3589 781.101 35.2055 779.95 34.7835C777.657 33.9213 775.511 32.7104 773.588 31.1935" fill="#2F2E41"/>
<path d="M756.075 51.1737C758.442 54.3563 761.428 57.0267 764.855 59.0241C768.282 61.0215 772.077 62.3045 776.013 62.7957C779.948 63.287 783.943 62.9764 787.755 61.8826C791.568 60.7888 795.119 58.9344 798.196 56.4313C800.581 54.491 802.796 51.8171 802.646 48.7463C802.493 45.601 799.922 43.1307 797.297 41.3911C790.392 36.8524 782.087 34.9441 773.893 36.0135C769.218 36.6417 764.529 38.3456 761.218 41.7056C757.908 45.0656 756.258 50.2914 757.966 54.6884" fill="#2F2E41"/>
</g>
<defs>
<clipPath id="clip0_235_93">
<rect width="920.109" height="411.952" fill="white"/>
</clipPath>
</defs>
</svg>

